<mxfile host="65bd71144e">
    <diagram id="ExdccTZqctQwAvQB16s_" name="Page-1">
        <mxGraphModel dx="5357" dy="3356" grid="1" gridSize="10" guides="1" tooltips="1" connect="1" arrows="1" fold="1" page="0" pageScale="1" pageWidth="827" pageHeight="1169" math="0" shadow="0">
            <root>
                <mxCell id="0"/>
                <mxCell id="1" parent="0"/>
                <mxCell id="187" value="" style="endArrow=none;dashed=1;html=1;fontSize=12;startArrow=none;entryX=0.5;entryY=1;entryDx=0;entryDy=0;" edge="1" parent="1" target="143">
                    <mxGeometry width="50" height="50" relative="1" as="geometry">
                        <mxPoint x="80" y="1770" as="sourcePoint"/>
                        <mxPoint x="535" y="-638" as="targetPoint"/>
                    </mxGeometry>
                </mxCell>
                <mxCell id="132" value="" style="endArrow=none;dashed=1;html=1;fontSize=12;entryX=0.5;entryY=1;entryDx=0;entryDy=0;startArrow=none;" parent="1" target="129" edge="1">
                    <mxGeometry width="50" height="50" relative="1" as="geometry">
                        <mxPoint x="-800" y="1021.25" as="sourcePoint"/>
                        <mxPoint x="-767" y="-111.96000000000004" as="targetPoint"/>
                    </mxGeometry>
                </mxCell>
                <mxCell id="126" value="16.7.0.31&lt;br&gt;single[014] (d4a91f) &amp;gt;&amp;gt; PeerId: 12D3KooWDiq6EGYKi5raQ33qBWnw6kWFmQjt3YEwqJioT5hVkTTm" style="shape=note;whiteSpace=wrap;html=1;backgroundOutline=1;darkOpacity=0.05;fontColor=#F0F0F0;fontSize=13;" parent="1" vertex="1">
                    <mxGeometry x="-667" y="-944" width="538" height="110" as="geometry"/>
                </mxCell>
                <mxCell id="129" value="Peer 6" style="ellipse;whiteSpace=wrap;html=1;fontStyle=1" parent="1" vertex="1">
                    <mxGeometry x="-860" y="-806" width="120" height="80" as="geometry"/>
                </mxCell>
                <mxCell id="130" value="Peer 14" style="ellipse;whiteSpace=wrap;html=1;fontStyle=1" parent="1" vertex="1">
                    <mxGeometry x="-500" y="-806" width="120" height="80" as="geometry"/>
                </mxCell>
                <mxCell id="133" value="" style="endArrow=none;dashed=1;html=1;fontSize=12;startArrow=none;entryX=0.5;entryY=1;entryDx=0;entryDy=0;" parent="1" target="130" edge="1">
                    <mxGeometry width="50" height="50" relative="1" as="geometry">
                        <mxPoint x="-440" y="1926" as="sourcePoint"/>
                        <mxPoint x="-440" y="-670" as="targetPoint"/>
                    </mxGeometry>
                </mxCell>
                <mxCell id="134" value="" style="endArrow=classic;html=1;entryX=0;entryY=0.5;entryDx=0;entryDy=0;" parent="1" edge="1" target="150">
                    <mxGeometry width="50" height="50" relative="1" as="geometry">
                        <mxPoint x="-440" y="190" as="sourcePoint"/>
                        <mxPoint x="-135.85640687119275" y="118.3757287525383" as="targetPoint"/>
                    </mxGeometry>
                </mxCell>
                <mxCell id="160" value="PRUNE" style="edgeLabel;html=1;align=center;verticalAlign=middle;resizable=0;points=[];" vertex="1" connectable="0" parent="134">
                    <mxGeometry x="-0.6759" y="1" relative="1" as="geometry">
                        <mxPoint as="offset"/>
                    </mxGeometry>
                </mxCell>
                <mxCell id="135" value="02:53:57.493062 &lt;br&gt;Handling GRAFT" style="html=1;dashed=0;whitespace=wrap;fontSize=13;" parent="1" vertex="1">
                    <mxGeometry x="-80" y="-7" width="320" height="40" as="geometry"/>
                </mxCell>
                <mxCell id="142" value="&lt;div&gt;16.7.0.4&lt;br&gt;&lt;/div&gt;&lt;div&gt;single[000] (777282)&lt;/div&gt;&lt;div&gt;PeerId: 12D3KooW9xpcq2AVqmKTzwiAxvSQEY73qCCqLg6RhqYmZBrZEsm4&lt;/div&gt;" style="shape=note;whiteSpace=wrap;html=1;backgroundOutline=1;darkOpacity=0.05;fontColor=#F0F0F0;fontSize=13;" vertex="1" parent="1">
                    <mxGeometry x="-170" y="-1120" width="538" height="110" as="geometry"/>
                </mxCell>
                <mxCell id="143" value="Peer 00" style="ellipse;whiteSpace=wrap;html=1;fontStyle=1" vertex="1" parent="1">
                    <mxGeometry x="20" y="-800" width="120" height="80" as="geometry"/>
                </mxCell>
                <mxCell id="144" value="Peer 13" style="ellipse;whiteSpace=wrap;html=1;fontStyle=1" vertex="1" parent="1">
                    <mxGeometry x="460" y="-800" width="120" height="80" as="geometry"/>
                </mxCell>
                <mxCell id="145" value="Peer 21" style="ellipse;whiteSpace=wrap;html=1;fontStyle=1" vertex="1" parent="1">
                    <mxGeometry x="912" y="-587" width="120" height="80" as="geometry"/>
                </mxCell>
                <mxCell id="146" value="16.7.0.29&lt;br&gt;&lt;div&gt;single[013] (7e9101)&lt;/div&gt;&lt;div&gt;PeerId: 12D3KooWGaWaBvDTWN8qmnj7o73i7oEc6mMC5yciwpFYbBRVXUJC&lt;/div&gt;" style="shape=note;whiteSpace=wrap;html=1;backgroundOutline=1;darkOpacity=0.05;fontColor=#F0F0F0;fontSize=13;" vertex="1" parent="1">
                    <mxGeometry x="374" y="-960" width="538" height="110" as="geometry"/>
                </mxCell>
                <mxCell id="147" value="16.7.0.2&lt;br&gt;&lt;div&gt;single[021] (17c7a3)&lt;/div&gt;&lt;div&gt;PeerId: 12D3KooWCuutSjn3grqqCKtQ12Uru2XNfwxhGXKdcYcdhxHisZWd&lt;/div&gt;" style="shape=note;whiteSpace=wrap;html=1;backgroundOutline=1;darkOpacity=0.05;fontColor=#F0F0F0;fontSize=13;" vertex="1" parent="1">
                    <mxGeometry x="813" y="-726" width="538" height="110" as="geometry"/>
                </mxCell>
                <mxCell id="148" value="" style="endArrow=classic;html=1;entryX=0.002;entryY=0.575;entryDx=0;entryDy=0;entryPerimeter=0;" edge="1" parent="1" target="135">
                    <mxGeometry width="50" height="50" relative="1" as="geometry">
                        <mxPoint x="-440" y="16" as="sourcePoint"/>
                        <mxPoint x="-136.85640687119258" y="15.995728752538525" as="targetPoint"/>
                    </mxGeometry>
                </mxCell>
                <mxCell id="159" value="GRAFT" style="edgeLabel;html=1;align=center;verticalAlign=middle;resizable=0;points=[];" vertex="1" connectable="0" parent="148">
                    <mxGeometry x="-0.6691" y="2" relative="1" as="geometry">
                        <mxPoint as="offset"/>
                    </mxGeometry>
                </mxCell>
                <mxCell id="150" value="02:53:57.495134&lt;br&gt;Handling PRUNE" style="html=1;dashed=0;whitespace=wrap;fontSize=13;" vertex="1" parent="1">
                    <mxGeometry x="-80" y="170" width="320" height="40" as="geometry"/>
                </mxCell>
                <mxCell id="151" value="Removing the `Peer 14` from the mesh" style="html=1;dashed=0;whitespace=wrap;fontSize=13;" vertex="1" parent="1">
                    <mxGeometry x="-80" y="360" width="320" height="40" as="geometry"/>
                </mxCell>
                <mxCell id="152" value="Receive messages from:&lt;br&gt;&lt;br&gt;&lt;div&gt;* 12D3KooWMYfom3rDNsDVaJAevshRLmKKw4EpH1CgNk1P4Rq2mjBj&lt;/div&gt;&lt;div&gt;* 12D3KooWMBt19oaT9od1qBBn8THBus8zXN5QJku6zLBgK8zRS6QV&lt;/div&gt;&lt;div&gt;* 12D3KooWFVPtQ3Z7z3N5iCHHSL2SHA8QMy1hkWrmTXM4dtqEZKYh&lt;/div&gt;&lt;div&gt;* 12D3KooWG78vEFAUUxxDGqMDjpLQqC4etFop8Hv4GNa9q22K4yKN&lt;/div&gt;&lt;div&gt;* 12D3KooWGaWaBvDTWN8qmnj7o73i7oEc6mMC5yciwpFYbBRVXUJC&lt;/div&gt;&lt;div&gt;* 12D3KooWEzx8qaGitAiznRh6RJ5jzjXewtob3beRFHjgCULbJDgs&lt;/div&gt;&lt;div&gt;* 12D3KooWHxfj3otFXgga4isipc9aXa8ErGKdxxYRSweBq11He8do&lt;/div&gt;&lt;div&gt;* 12D3KooWHXneQED8jc6dKAbzd5rtLVFo98mh5FKk3zoKsTBAUMsx&lt;/div&gt;&lt;div&gt;* 12D3KooWNYgCeuXFxUa8vEBLLt2fx79Yp97QyS7CmxzXKXE3kJ3k&lt;/div&gt;&lt;div&gt;* 12D3KooWQuG5tN8xfh1j4uNSZjhfAVtsp3Q6X56uLQNfmSskSvX9&lt;/div&gt;&lt;div&gt;* 12D3KooWPjxS3viukhiiMiSU3XCqGXRXyyDusuqq1Ao7ZMgCpDDM&lt;/div&gt;&lt;div&gt;* 12D3KooWSzpAoEctsVX7LZXWxo2VEJbZTXy1uX113bhwdL6LAjyo&lt;/div&gt;&lt;div&gt;* 12D3KooWDYWEKP8f126LmcrsRk9PjEhWw3MYiRper9P6jESt4rFP&lt;/div&gt;&lt;div&gt;* 12D3KooWK2YBh53fPEnDK7C2p6x8bTcBWozSkQz31gGQQRXFgAMH&lt;/div&gt;&lt;div&gt;* 12D3KooWCuutSjn3grqqCKtQ12Uru2XNfwxhGXKdcYcdhxHisZWd&lt;/div&gt;&lt;div&gt;* 12D3KooWAhwQ2awwKKvzum86JUgQzHEK2AjYpxauiEiPsMRF5fef&lt;/div&gt;&lt;div&gt;* 12D3KooWCjcTjA68RGoaJbQEUeucasqFAJDjRHtaauwHeDjWizRr&lt;/div&gt;&lt;div&gt;* 12D3KooWMUyJiFpvqcszPVHcN48dqHNshm8rioorAKxWaCvCDNsN&lt;/div&gt;&lt;div&gt;* 12D3KooWDiq6EGYKi5raQ33qBWnw6kWFmQjt3YEwqJioT5hVkTTm&lt;/div&gt;&lt;div&gt;&lt;br&gt;&lt;/div&gt;" style="html=1;dashed=0;whitespace=wrap;fontSize=13;" vertex="1" parent="1">
                    <mxGeometry x="-126" y="-634" width="440" height="478" as="geometry"/>
                </mxCell>
                <mxCell id="153" value="16.7.0.22&lt;br&gt;single[006] (1bda92) &amp;gt;&amp;gt; PeerId: 12D3KooWAhwQ2awwKKvzum86JUgQzHEK2AjYpxauiEiPsMRF5fef" style="shape=note;whiteSpace=wrap;html=1;backgroundOutline=1;darkOpacity=0.05;fontColor=#F0F0F0;fontSize=13;" vertex="1" parent="1">
                    <mxGeometry x="-1233" y="-941" width="538" height="110" as="geometry"/>
                </mxCell>
                <mxCell id="154" value="02:53:57.502379&lt;br&gt;Handling GRAFT" style="html=1;dashed=0;whitespace=wrap;fontSize=13;" vertex="1" parent="1">
                    <mxGeometry x="-920" y="200" width="320" height="40" as="geometry"/>
                </mxCell>
                <mxCell id="155" value="" style="endArrow=classic;html=1;entryX=1;entryY=0.5;entryDx=0;entryDy=0;" edge="1" parent="1" target="154">
                    <mxGeometry width="50" height="50" relative="1" as="geometry">
                        <mxPoint x="-440" y="220" as="sourcePoint"/>
                        <mxPoint x="-118.11999999999944" y="26" as="targetPoint"/>
                    </mxGeometry>
                </mxCell>
                <mxCell id="158" value="GRAFT" style="edgeLabel;html=1;align=center;verticalAlign=middle;resizable=0;points=[];" vertex="1" connectable="0" parent="155">
                    <mxGeometry x="-0.0792" y="-4" relative="1" as="geometry">
                        <mxPoint x="33" y="4" as="offset"/>
                    </mxGeometry>
                </mxCell>
                <mxCell id="156" value="02:53:57.503804&lt;br&gt;Mesh link added for `Peer14`" style="html=1;dashed=0;whitespace=wrap;fontSize=13;" vertex="1" parent="1">
                    <mxGeometry x="-920" y="280" width="320" height="40" as="geometry"/>
                </mxCell>
                <mxCell id="161" value="" style="endArrow=classic;html=1;" edge="1" parent="1">
                    <mxGeometry width="50" height="50" relative="1" as="geometry">
                        <mxPoint x="-440" y="380" as="sourcePoint"/>
                        <mxPoint x="-790" y="380" as="targetPoint"/>
                    </mxGeometry>
                </mxCell>
                <mxCell id="162" value="IHAVE" style="edgeLabel;html=1;align=center;verticalAlign=middle;resizable=0;points=[];" vertex="1" connectable="0" parent="161">
                    <mxGeometry x="-0.0792" y="-4" relative="1" as="geometry">
                        <mxPoint x="121" y="4" as="offset"/>
                    </mxGeometry>
                </mxCell>
                <mxCell id="163" value="" style="endArrow=classic;html=1;exitX=0;exitY=0.5;exitDx=0;exitDy=0;" edge="1" parent="1" source="170">
                    <mxGeometry width="50" height="50" relative="1" as="geometry">
                        <mxPoint x="-620" y="600" as="sourcePoint"/>
                        <mxPoint x="-800" y="585" as="targetPoint"/>
                    </mxGeometry>
                </mxCell>
                <mxCell id="164" value="IWANT" style="edgeLabel;html=1;align=center;verticalAlign=middle;resizable=0;points=[];" vertex="1" connectable="0" parent="163">
                    <mxGeometry x="-0.0792" y="-4" relative="1" as="geometry">
                        <mxPoint x="70" y="4" as="offset"/>
                    </mxGeometry>
                </mxCell>
                <mxCell id="165" value="" style="endArrow=classic;html=1;" edge="1" parent="1">
                    <mxGeometry width="50" height="50" relative="1" as="geometry">
                        <mxPoint x="-680" y="440" as="sourcePoint"/>
                        <mxPoint x="-440" y="440" as="targetPoint"/>
                    </mxGeometry>
                </mxCell>
                <mxCell id="166" value="IWANT" style="edgeLabel;html=1;align=center;verticalAlign=middle;resizable=0;points=[];" vertex="1" connectable="0" parent="165">
                    <mxGeometry x="-0.0792" y="-4" relative="1" as="geometry">
                        <mxPoint x="-5" y="-4" as="offset"/>
                    </mxGeometry>
                </mxCell>
                <mxCell id="168" value="02:53:57.506482&lt;br&gt;Sending IWANT&lt;br&gt;Asking for 18 out of 18 messages from `Peer 16`" style="html=1;dashed=0;whitespace=wrap;fontSize=13;" vertex="1" parent="1">
                    <mxGeometry x="-1000" y="420" width="320" height="50" as="geometry"/>
                </mxCell>
                <mxCell id="170" value="02:53:57.507564&lt;br&gt;Sending IWANT&lt;br&gt;Asking for 10 out of 10 messages from `Peer 6`" style="html=1;dashed=0;whitespace=wrap;fontSize=13;" vertex="1" parent="1">
                    <mxGeometry x="-558" y="560" width="320" height="50" as="geometry"/>
                </mxCell>
                <mxCell id="171" value="" style="endArrow=classic;html=1;" edge="1" parent="1">
                    <mxGeometry width="50" height="50" relative="1" as="geometry">
                        <mxPoint x="-800" y="520" as="sourcePoint"/>
                        <mxPoint x="-440" y="520" as="targetPoint"/>
                    </mxGeometry>
                </mxCell>
                <mxCell id="172" value="IHAVE" style="edgeLabel;html=1;align=center;verticalAlign=middle;resizable=0;points=[];" vertex="1" connectable="0" parent="171">
                    <mxGeometry x="-0.0792" y="-4" relative="1" as="geometry">
                        <mxPoint x="-135" y="-4" as="offset"/>
                    </mxGeometry>
                </mxCell>
                <mxCell id="173" value="02:53:58.501294&lt;br&gt;Sending cached messages" style="html=1;dashed=0;whitespace=wrap;fontSize=13;" vertex="1" parent="1">
                    <mxGeometry x="-558" y="940" width="320" height="50" as="geometry"/>
                </mxCell>
                <mxCell id="174" value="" style="endArrow=classic;html=1;exitX=0;exitY=0.5;exitDx=0;exitDy=0;" edge="1" parent="1" source="173">
                    <mxGeometry width="50" height="50" relative="1" as="geometry">
                        <mxPoint x="-548" y="865" as="sourcePoint"/>
                        <mxPoint x="-800" y="965" as="targetPoint"/>
                    </mxGeometry>
                </mxCell>
                <mxCell id="176" value="02:53:58.496912&lt;br&gt;Sending cached messages" style="html=1;dashed=0;whitespace=wrap;fontSize=13;" vertex="1" parent="1">
                    <mxGeometry x="-930" y="840" width="320" height="50" as="geometry"/>
                </mxCell>
                <mxCell id="177" value="" style="endArrow=classic;html=1;exitX=1;exitY=0.5;exitDx=0;exitDy=0;" edge="1" parent="1" source="176">
                    <mxGeometry width="50" height="50" relative="1" as="geometry">
                        <mxPoint x="-790" y="700" as="sourcePoint"/>
                        <mxPoint x="-440" y="865" as="targetPoint"/>
                    </mxGeometry>
                </mxCell>
                <mxCell id="179" value="02:53:57.493084&lt;br&gt;Gossiping IHAVE to 6 peers." style="html=1;dashed=0;whitespace=wrap;fontSize=13;" vertex="1" parent="1">
                    <mxGeometry x="-590" y="40" width="320" height="40" as="geometry"/>
                </mxCell>
                <mxCell id="180" value="02:53:56.490559&lt;br&gt;Gossiping IHAVE to 6 peers." style="html=1;dashed=0;whitespace=wrap;fontSize=13;" vertex="1" parent="1">
                    <mxGeometry x="-600" y="-110" width="320" height="40" as="geometry"/>
                </mxCell>
                <mxCell id="181" value="02:53:58.490379&lt;br&gt;Gossiping IHAVE to 6 peers." style="html=1;dashed=0;whitespace=wrap;fontSize=13;" vertex="1" parent="1">
                    <mxGeometry x="-558" y="780" width="320" height="40" as="geometry"/>
                </mxCell>
                <mxCell id="182" value="02:53:59.490481&lt;br&gt;Gossiping IHAVE to 6 peers." style="html=1;dashed=0;whitespace=wrap;fontSize=13;" vertex="1" parent="1">
                    <mxGeometry x="-558" y="1080" width="320" height="40" as="geometry"/>
                </mxCell>
                <mxCell id="183" value="02:54:00.489837&lt;br&gt;Gossiping IHAVE to 6 peers." style="html=1;dashed=0;whitespace=wrap;fontSize=13;" vertex="1" parent="1">
                    <mxGeometry x="-558" y="1230" width="320" height="40" as="geometry"/>
                </mxCell>
                <mxCell id="184" value="02:54:01.489895&lt;br&gt;Gossiping IHAVE to 6 peers." style="html=1;dashed=0;whitespace=wrap;fontSize=13;" vertex="1" parent="1">
                    <mxGeometry x="-558" y="1390" width="320" height="40" as="geometry"/>
                </mxCell>
                <mxCell id="185" value="02:53:57.495485&lt;br&gt;HEARTBEAT: Mesh high. Topic: smoke Contains: 13 needs: 12" style="html=1;dashed=0;whitespace=wrap;fontSize=13;" vertex="1" parent="1">
                    <mxGeometry x="-610" y="110" width="400" height="40" as="geometry"/>
                </mxCell>
                <mxCell id="186" value="" style="endArrow=none;dashed=1;html=1;fontSize=12;startArrow=none;entryX=0.5;entryY=1;entryDx=0;entryDy=0;" edge="1" parent="1" target="144">
                    <mxGeometry width="50" height="50" relative="1" as="geometry">
                        <mxPoint x="520" y="1560" as="sourcePoint"/>
                        <mxPoint x="-430" y="-716" as="targetPoint"/>
                        <Array as="points">
                            <mxPoint x="520" y="1950"/>
                        </Array>
                    </mxGeometry>
                </mxCell>
                <mxCell id="188" value="02:53:58.745480&lt;br&gt;Sending cached messages" style="html=1;dashed=0;whitespace=wrap;fontSize=13;" vertex="1" parent="1">
                    <mxGeometry x="-550" y="1010" width="320" height="50" as="geometry"/>
                </mxCell>
                <mxCell id="189" value="" style="endArrow=classic;html=1;exitX=1;exitY=0.5;exitDx=0;exitDy=0;" edge="1" parent="1" source="188">
                    <mxGeometry width="50" height="50" relative="1" as="geometry">
                        <mxPoint x="259" y="1040.33" as="sourcePoint"/>
                        <mxPoint x="520" y="1040" as="targetPoint"/>
                    </mxGeometry>
                </mxCell>
                <mxCell id="190" value="02:54:01.500524&lt;br&gt;Asking for 10 out of 10 messages `Peer 14`" style="html=1;dashed=0;whitespace=wrap;fontSize=13;" vertex="1" parent="1">
                    <mxGeometry x="360" y="1470" width="320" height="40" as="geometry"/>
                </mxCell>
                <mxCell id="191" value="" style="endArrow=classic;html=1;exitX=0;exitY=0.5;exitDx=0;exitDy=0;" edge="1" parent="1" source="190">
                    <mxGeometry width="50" height="50" relative="1" as="geometry">
                        <mxPoint x="-220" y="1045" as="sourcePoint"/>
                        <mxPoint x="-440" y="1490" as="targetPoint"/>
                    </mxGeometry>
                </mxCell>
                <mxCell id="192" value="02:53:57.495408&lt;br&gt;Asking for 18 out of 18 messages `Peer 14`" style="html=1;dashed=0;whitespace=wrap;fontSize=13;" vertex="1" parent="1">
                    <mxGeometry x="360" y="490" width="320" height="40" as="geometry"/>
                </mxCell>
                <mxCell id="193" value="" style="endArrow=classic;html=1;exitX=0;exitY=0.5;exitDx=0;exitDy=0;" edge="1" parent="1" source="192">
                    <mxGeometry width="50" height="50" relative="1" as="geometry">
                        <mxPoint x="660" y="864.33" as="sourcePoint"/>
                        <mxPoint x="-440" y="500" as="targetPoint"/>
                    </mxGeometry>
                </mxCell>
                <mxCell id="194" value="02:54:03.498326&lt;br&gt;Handling IWANT for `Peer 13`" style="html=1;dashed=0;whitespace=wrap;fontSize=13;" vertex="1" parent="1">
                    <mxGeometry x="-570" y="1570" width="320" height="40" as="geometry"/>
                </mxCell>
            </root>
        </mxGraphModel>
    </diagram>
</mxfile>